<svg width="58" height="62" viewBox="0 0 58 62" fill="none" xmlns="http://www.w3.org/2000/svg">
    <path d="M26.928 10.41a5.592 5.592 0 0 0-5.747-4.134c-1.762.11-2.454 1.829-2.127 3.05l1.597 5.959c.327 1.22 1.785 2.363 3.367 1.578a5.592 5.592 0 0 0 2.91-6.454z" fill="#E0FFB5" stroke="#0BAA78" stroke-width="3.47"/>
    <path fill-rule="evenodd" clip-rule="evenodd" d="M39.926 15.863a6.169 6.169 0 1 1-3.264 11.587 6.147 6.147 0 0 1-3.659 2.73 6.148 6.148 0 0 1-4.534-.535 6.148 6.148 0 0 1-3.659 2.73 6.147 6.147 0 0 1-4.534-.534 6.169 6.169 0 1 1-8.62-8.402 6.17 6.17 0 0 1 9.001-6.564 6.148 6.148 0 0 1 3.66-2.73 6.147 6.147 0 0 1 4.533.535 6.17 6.17 0 0 1 11.076 1.184z" fill="#E0FFB5"/>
    <path d="m39.926 15.863-1.82.638.428 1.22 1.29.067.102-1.925zM36.663 27.45l.918-1.695-1.606-.87-.955 1.556 1.643 1.009zm-8.194 2.195.918-1.695-1.605-.87-.955 1.557 1.642 1.008zm-8.193 2.196.918-1.695-1.605-.87-.955 1.556 1.642 1.009zM9.062 30.208l1.862-.499-1.862.499zm2.595-6.77 1.05 1.617 1.084-.705-.24-1.27-1.894.358zm4.466-7.097-.499-1.862.5 1.862zm4.534.534-.918 1.695 1.605.87.956-1.556-1.643-1.009zm3.66-2.73-.5-1.861.5 1.862zm4.533.535-.918 1.695 1.605.87.956-1.556-1.643-1.01zm3.66-2.73.498 1.863-.498-1.863zm14.91 7.98a8.1 8.1 0 0 0-7.392-5.992l-.203 3.85a4.244 4.244 0 0 1 3.871 3.14l3.724-.998zm-5.725 9.916a8.097 8.097 0 0 0 5.725-9.916l-3.724.998a4.241 4.241 0 0 1-2.999 5.194l.998 3.724zm-5.95-.7a8.076 8.076 0 0 0 5.95.7l-.998-3.724a4.22 4.22 0 0 1-3.116-.367l-1.837 3.39zm-2.243 2.895a8.075 8.075 0 0 0 4.803-3.582L35.02 26.44a4.22 4.22 0 0 1-2.516 1.876l.998 3.724zm-5.95-.7a8.076 8.076 0 0 0 5.95.7l-.998-3.724a4.22 4.22 0 0 1-3.116-.367l-1.837 3.39zm-2.243 2.896a8.076 8.076 0 0 0 4.803-3.583l-3.285-2.017a4.22 4.22 0 0 1-2.516 1.875l.998 3.725zm-5.95-.701a8.076 8.076 0 0 0 5.95.7l-.998-3.723a4.22 4.22 0 0 1-3.117-.367l-1.836 3.39zm-2.243 2.896a8.075 8.075 0 0 0 4.803-3.582l-3.285-2.018a4.22 4.22 0 0 1-2.516 1.876l.998 3.724zM7.2 30.707a8.097 8.097 0 0 0 9.916 5.725l-.998-3.724a4.241 4.241 0 0 1-5.194-2.999l-3.724.998zm3.406-8.885A8.1 8.1 0 0 0 7.2 30.707l3.724-.998a4.244 4.244 0 0 1 1.783-4.654l-2.1-3.233zm2.945 1.258a4.242 4.242 0 0 1 3.071-4.877l-.998-3.724a8.097 8.097 0 0 0-5.862 9.317l3.789-.716zm3.071-4.877a4.22 4.22 0 0 1 3.117.367l1.836-3.39a8.075 8.075 0 0 0-5.95-.7l.997 3.723zm7.195-5.92a8.075 8.075 0 0 0-4.803 3.583l3.286 2.018a4.22 4.22 0 0 1 2.515-1.876l-.998-3.724zm5.951.702a8.075 8.075 0 0 0-5.95-.701l.997 3.724a4.22 4.22 0 0 1 3.117.367l1.836-3.39zm2.242-2.897a8.075 8.075 0 0 0-4.803 3.583l3.286 2.018a4.22 4.22 0 0 1 2.515-1.876l-.998-3.725zm9.736 5.138a8.097 8.097 0 0 0-9.736-5.138l.998 3.725a4.242 4.242 0 0 1 5.099 2.688l3.639-1.275z" fill="#0BAA78"/>
    <path fill-rule="evenodd" clip-rule="evenodd" d="M38.512 48.591a6.158 6.158 0 0 1-4.087 3.56 6.158 6.158 0 0 1-5.32-1.04 6.171 6.171 0 0 1-7.911-2.762 6.171 6.171 0 0 1-6.377-5.813 6.169 6.169 0 1 1 5.266-11.137 6.148 6.148 0 0 1 3.66-2.73 6.147 6.147 0 0 1 4.533.534 6.148 6.148 0 0 1 3.66-2.73 6.147 6.147 0 0 1 4.533.535A6.169 6.169 0 1 1 46.6 34.02a6.171 6.171 0 0 1-2.616 8.223 6.171 6.171 0 0 1-5.471 6.348z" fill="#9DE89F"/>
    <path d="m38.512 48.591-.22-1.915-1.118.128-.438 1.036 1.776.751zm-9.406 2.52 1.162-1.537-.898-.679-1.032.448.768 1.769zm-7.912-2.762 1.704-.902-.566-1.068-1.207.044.07 1.926zm-6.377-5.813 1.924-.112-.07-1.213-1.125-.46-.73 1.785zm5.266-11.138-.918 1.695 1.605.87.956-1.556-1.643-1.009zm8.193-2.195-.918 1.695 1.605.87.956-1.556-1.643-1.009zm8.193-2.195-.918 1.695 1.605.87.956-1.556-1.643-1.01zM46.6 34.02l-1.524-1.18-.745.96.546 1.085 1.722-.865zm-2.617 8.223-.903-1.703-1.067.566.044 1.207 1.926-.07zm-7.246 5.597a4.23 4.23 0 0 1-2.81 2.449l.998 3.724a8.086 8.086 0 0 0 5.363-4.67l-3.55-1.503zm-2.81 2.449a4.23 4.23 0 0 1-3.658-.715l-2.325 3.076a8.086 8.086 0 0 0 6.98 1.363l-.997-3.724zm-5.588-.946c-.19.082-.389.152-.597.208l.998 3.724c.392-.105.77-.237 1.134-.395l-1.535-3.537zm-.597.208a4.243 4.243 0 0 1-4.843-2.105l-3.407 1.806a8.099 8.099 0 0 0 9.248 4.023l-.998-3.724zm-6.616-3.128a4.243 4.243 0 0 1-4.245-3.142l-3.724.998a8.099 8.099 0 0 0 8.108 5.997l-.14-3.853zM16.88 43.28a4.26 4.26 0 0 1-.139-.857l-3.849.224c.032.543.119 1.089.264 1.63l3.724-.997zm-1.334-2.53a4.232 4.232 0 0 1-2.497-2.83l-3.724.998a8.087 8.087 0 0 0 4.763 5.401l1.458-3.569zm-2.497-2.83a4.241 4.241 0 0 1 3-5.194l-.999-3.725a8.097 8.097 0 0 0-5.725 9.917l3.724-.998zm3-5.194a4.22 4.22 0 0 1 3.116.367L21 29.703a8.076 8.076 0 0 0-5.95-.702l.997 3.725zm5.677-.32a4.22 4.22 0 0 1 2.515-1.876l-.998-3.724a8.075 8.075 0 0 0-4.803 3.583l3.285 2.017zm2.515-1.876a4.22 4.22 0 0 1 3.117.367l1.836-3.39a8.075 8.075 0 0 0-5.95-.7l.997 3.723zm5.678-.319a4.22 4.22 0 0 1 2.515-1.876l-.998-3.724a8.076 8.076 0 0 0-4.803 3.582l3.286 2.018zm2.515-1.876a4.22 4.22 0 0 1 3.117.367l1.836-3.39a8.075 8.075 0 0 0-5.95-.701l.997 3.724zm5.678-.32a4.22 4.22 0 0 1 2.515-1.875l-.997-3.725A8.076 8.076 0 0 0 34.827 26l3.285 2.018zm2.515-1.875a4.241 4.241 0 0 1 5.195 2.999l3.724-.998a8.097 8.097 0 0 0-9.916-5.726l.997 3.725zm5.195 2.999a4.231 4.231 0 0 1-.747 3.7l3.047 2.361a8.087 8.087 0 0 0 1.424-7.06l-3.724.999zm-.946 5.745c.127.253.23.524.308.812l3.724-.998a8.125 8.125 0 0 0-.587-1.544l-3.445 1.73zm.308.812a4.243 4.243 0 0 1-2.105 4.843l1.806 3.407a8.1 8.1 0 0 0 4.023-9.248l-3.724.998zm-3.128 6.616a4.243 4.243 0 0 1-3.143 4.244l.998 3.725a8.099 8.099 0 0 0 5.998-8.108l-3.853.14zm-3.143 4.244a4.285 4.285 0 0 1-.621.119l.44 3.83a8.14 8.14 0 0 0 1.18-.224l-.999-3.724z" fill="#0BAA78"/>
</svg>
